HIERARCHY
ROOT Hips
{
  OFFSET 53.1118 85.5353 9.25353
  CHANNELS 6 Xposition Yposition Zposition Zrotation Xrotation Yrotation
  JOINT spine
  {
    OFFSET 0 6.3926 0.367606
    CHANNELS 3 Zrotation Xrotation Yrotation
    JOINT spine1
    {
      OFFSET 0 9.17611 0
      CHANNELS 3 Zrotation Xrotation Yrotation
      JOINT spine2
      {
        OFFSET 0 8.79238 0
        CHANNELS 3 Zrotation Xrotation Yrotation
        JOINT Neck
        {
          OFFSET 0 22.5737 1.07624
          CHANNELS 3 Zrotation Xrotation Yrotation
          JOINT Head
          {
            OFFSET 0 6.82011 0
            CHANNELS 3 Zrotation Xrotation Yrotation
            End Site
            {
              OFFSET 0 16.5085 -5.44427
            }
          }
        }
        JOINT RightShoulder
        {
          OFFSET -3.70221 9.49509 -0.515508
          CHANNELS 3 Zrotation Xrotation Yrotation
          JOINT RightArm
          {
            OFFSET 0 12.4537 0
            CHANNELS 3 Zrotation Xrotation Yrotation
            JOINT RightArmRoll
            {
              OFFSET 0 6.28686 0
              CHANNELS 3 Zrotation Xrotation Yrotation
              JOINT RightForeArm
              {
                OFFSET 0 18.3114 0
                CHANNELS 3 Zrotation Xrotation Yrotation
                JOINT RightForeArmRoll
                {
                  OFFSET 0 7.05482 0
                  CHANNELS 3 Zrotation Xrotation Yrotation
                  JOINT RightHand
                  {
                    OFFSET 0 14.1575 0
                    CHANNELS 3 Zrotation Xrotation Yrotation
                    End Site
                    {
                      OFFSET 0 0 0
                    }
                  }
                }
              }
            }
          }
        }
        JOINT LeftShoulder
        {
          OFFSET 3.70221 9.49509 -0.515508
          CHANNELS 3 Zrotation Xrotation Yrotation
          JOINT LeftArm
          {
            OFFSET 0 12.4537 0
            CHANNELS 3 Zrotation Xrotation Yrotation
            JOINT LeftArmRoll
            {
              OFFSET 0 6.28686 0
              CHANNELS 3 Zrotation Xrotation Yrotation
              JOINT LeftForeArm
              {
                OFFSET 0 18.3114 0
                CHANNELS 3 Zrotation Xrotation Yrotation
                JOINT LeftForeArmRoll
                {
                  OFFSET 0 7.05483 0
                  CHANNELS 3 Zrotation Xrotation Yrotation
                  JOINT LeftHand
                  {
                    OFFSET 0 14.1575 0
                    CHANNELS 3 Zrotation Xrotation Yrotation
                    End Site
                    {
                      OFFSET 0 0 0
                    }
                  }
                }
              }
            }
          }
        }
      }
    }
  }
  JOINT RightUpLeg
  {
    OFFSET -5.66615 -1.03903 -0.87161
    CHANNELS 3 Zrotation Xrotation Yrotation
    JOINT RightUpLegRoll
    {
      OFFSET 0 16.6005 0
      CHANNELS 3 Zrotation Xrotation Yrotation
      JOINT RightLeg
      {
        OFFSET 0 -20.5572 0
        CHANNELS 3 Zrotation Xrotation Yrotation
        JOINT RightLegRoll
        {
          OFFSET 0 20.6244 0
          CHANNELS 3 Zrotation Xrotation Yrotation
          JOINT RightFoot
          {
            OFFSET 0 17.1664 0
            CHANNELS 3 Zrotation Xrotation Yrotation
            JOINT RightToeBase
            {
              OFFSET 0 14.3502 0
              CHANNELS 3 Zrotation Xrotation Yrotation
              End Site
              {
                OFFSET 0.00608252 6.94971 -0.801061
              }
            }
          }
        }
      }
    }
  }
  JOINT LeftUpLeg
  {
    OFFSET 5.66615 -1.03903 -0.87161
    CHANNELS 3 Zrotation Xrotation Yrotation
    JOINT LeftUpLegRoll
    {
      OFFSET 0 16.6006 0
      CHANNELS 3 Zrotation Xrotation Yrotation
      JOINT LeftLeg
      {
        OFFSET 0 20.5571 0
        CHANNELS 3 Zrotation Xrotation Yrotation
        JOINT LeftLegRoll
        {
          OFFSET 0 20.8151 0
          CHANNELS 3 Zrotation Xrotation Yrotation
          JOINT LeftFoot
          {
            OFFSET 0 16.9757 0
            CHANNELS 3 Zrotation Xrotation Yrotation
            JOINT LeftToeBase
            {
              OFFSET 0 14.3502 0
              CHANNELS 3 Zrotation Xrotation Yrotation
              End Site
              {
                OFFSET -0.0272592 6.94971 -0.80106
              }
            }
          }
        }
      }
    }
  }
}
MOTION
Frames: 10
Frame Time: 0.00208333
52.792 85.6783 10.323 -2.37891 -3.10623 -4.28834 -0.0459205 -1.30624 -0.0285693 -0.094548 1.39038 -0.051979 -0.093999 3.03545 -0.0506605 2.26058 8.84065 1.78338 -2.13162 2.43542 2.30569 60.1865 -4.25724 -2.71483 110.019 16.5125 5.25858 1.52631e-006 -1.14173e-006 -6.61423e-006 12.6335 5.37097 -1.10728 7.56567e-007 4.28988e-006 -3.00582 8.02887 -4.95147 0.697709 -55.0278 -2.0982 0.887693 -113.203 12.8799 -0.618663 6.88396e-006 1.44567e-006 4.84545e-006 -10.0257 6.0578 1.09897 -1.15031e-006 -1.84667e-006 3 -8.02897 -4.95145 -0.697688 174.909 -3.22567 0.721289 180 7.01512e-015 178.78 177.921 4.48804 179.719 2.08359e-006 -2.56809e-006 0.0405783 -18.9057 68.0627 19.5822 8.13649 25.2327 -3.48774 -171.514 -2.68253 -1.85328 4.54188e-006 -4.6773e-006 -1.11662 -1.36835 -8.05346 0.464732 -1.60941e-006 -3.52245e-006 -0.12273 19.8343 70.4594 -21.7644 -8.1366 25.2343 3.48554 
52.7961 85.6769 10.3333 -2.38177 -3.11019 -4.29022 -0.045697 -1.30533 -0.0283969 -0.0942119 1.39225 -0.0515988 -0.0936625 3.03732 -0.0502653 2.26588 8.83211 1.78418 -2.13974 2.445 2.30751 60.1871 -4.2605 -2.71682 110.012 16.5135 5.26055 1.52631e-006 -1.14173e-006 -6.61423e-006 12.6332 5.37272 -1.10861 7.56567e-007 4.28988e-006 -3.00582 8.02887 -4.95147 0.697709 -55.0235 -2.10196 0.889726 -113.209 12.883 -0.634494 6.88396e-006 1.44567e-006 4.84545e-006 -10.0079 6.05472 1.09853 -1.15031e-006 -1.84667e-006 3 -8.02897 -4.95145 -0.697688 174.908 -3.22789 0.726395 180 7.01512e-015 178.78 177.913 4.49039 179.719 2.08359e-006 -2.56809e-006 0.0405783 -18.9047 68.0614 19.5811 8.13649 25.2327 -3.48774 -171.51 -2.68448 -1.85622 4.54188e-006 -4.6773e-006 -1.11662 -1.36893 -8.05754 0.464552 -1.60941e-006 -3.52245e-006 -0.122743 19.8333 70.4607 -21.7663 -8.1366 25.2343 3.48554 
52.7932 85.6806 10.3291 -2.38469 -3.11408 -4.29216 -0.0454403 -1.30444 -0.0282054 -0.0938261 1.3941 -0.051165 -0.0932766 3.03918 -0.0498164 2.27111 8.82364 1.78492 -2.14784 2.45433 2.30924 60.1873 -4.26372 -2.71877 110.004 16.5143 5.26151 1.52631e-006 -1.14173e-006 -6.61423e-006 12.6335 5.37478 -1.11 7.56567e-007 4.28988e-006 -3.00582 8.02887 -4.95147 0.697709 -55.0191 -2.10598 0.891916 -113.216 12.8861 -0.648904 6.88396e-006 1.44567e-006 4.84545e-006 -9.99105 6.05166 1.09812 -1.15031e-006 -1.84667e-006 3 -8.02897 -4.95145 -0.697688 174.907 -3.22999 0.731649 180 7.01512e-015 178.78 177.905 4.49282 179.72 2.08359e-006 -2.56809e-006 0.0405783 -18.9036 68.0602 19.5799 8.13649 25.2327 -3.48774 -171.506 -2.68634 -1.85918 4.54188e-006 -4.6773e-006 -1.11662 -1.36947 -8.06167 0.464382 -1.60941e-006 -3.52245e-006 -0.122753 19.8322 70.4619 -21.7683 -8.1366 25.2343 3.48554 
52.7982 85.6743 10.32 -2.38765 -3.11794 -4.29415 -0.0451604 -1.30357 -0.0280007 -0.0934053 1.39595 -0.0506937 -0.0928559 3.04103 -0.04933 2.2763 8.81521 1.78561 -2.15593 2.46347 2.31091 60.1874 -4.26691 -2.72069 109.997 16.515 5.26177 1.52631e-006 -1.14173e-006 -6.61423e-006 12.6343 5.37705 -1.11145 7.56567e-007 4.28988e-006 -3.00582 8.02887 -4.95147 0.697709 -55.0145 -2.11019 0.894216 -113.223 12.8894 -0.662321 6.88396e-006 1.44567e-006 4.84545e-006 -9.975 6.04861 1.09773 -1.15031e-006 -1.84667e-006 3 -8.02897 -4.95145 -0.697688 174.906 -3.23201 0.737005 180 7.01512e-015 178.78 177.897 4.49531 179.721 2.08359e-006 -2.56809e-006 0.0405783 -18.9025 68.0589 19.5787 8.13649 25.2327 -3.48774 -171.501 -2.68814 -1.86214 4.54188e-006 -4.6773e-006 -1.11662 -1.36997 -8.06585 0.464218 -1.60941e-006 -3.52245e-006 -0.122761 19.8311 70.4632 -21.7702 -8.1366 25.2343 3.48554 
52.7937 85.6737 10.322 -2.39064 -3.12177 -4.29617 -0.0448674 -1.30271 -0.0277883 -0.0929647 1.3978 -0.0502008 -0.0924155 3.04287 -0.048822 2.28146 8.80681 1.78628 -2.16402 2.47251 2.31254 60.1874 -4.27008 -2.72258 109.989 16.5156 5.26162 1.52631e-006 -1.14173e-006 -6.61423e-006 12.6353 5.37944 -1.11292 7.56567e-007 4.28988e-006 -3.00582 8.02887 -4.95147 0.697709 -55.0098 -2.11451 0.896579 -113.23 12.8926 -0.675169 6.88396e-006 1.44567e-006 4.84545e-006 -9.95938 6.04558 1.09736 -1.15031e-006 -1.84667e-006 3 -8.02897 -4.95145 -0.697688 174.905 -3.23398 0.742421 180 7.01512e-015 178.78 177.888 4.49783 179.721 2.08359e-006 -2.56809e-006 0.0405783 -18.9014 68.0576 19.5775 8.13649 25.2327 -3.48774 -171.497 -2.6899 -1.8651 4.54188e-006 -4.6773e-006 -1.11662 -1.37046 -8.07005 0.464058 -1.60941e-006 -3.52245e-006 -0.122769 19.8299 70.4645 -21.7722 -8.1366 25.2343 3.48554 
52.7856 85.6777 10.3228 -2.39364 -3.1256 -4.2982 -0.044571 -1.30185 -0.027574 -0.0925191 1.39964 -0.0497026 -0.0919702 3.04471 -0.0483087 2.28662 8.79842 1.78694 -2.1721 2.48153 2.31416 60.1873 -4.27325 -2.72447 109.982 16.5162 5.26138 1.52631e-006 -1.14173e-006 -6.61423e-006 12.6364 5.38186 -1.11439 7.56567e-007 4.28988e-006 -3.00582 8.02887 -4.95147 0.697709 -55.0051 -2.11885 0.898957 -113.238 12.8959 -0.687875 6.88396e-006 1.44567e-006 4.84545e-006 -9.94387 6.04255 1.09699 -1.15031e-006 -1.84667e-006 3 -8.02897 -4.95145 -0.697688 174.903 -3.23595 0.747852 180 7.01512e-015 178.78 177.88 4.50034 179.722 2.08359e-006 -2.56809e-006 0.0405783 -18.9003 68.0563 19.5763 8.13649 25.2327 -3.48774 -171.493 -2.69165 -1.86806 4.54188e-006 -4.6773e-006 -1.11662 -1.37095 -8.07425 0.463899 -1.60941e-006 -3.52245e-006 -0.122777 19.8288 70.4657 -21.7742 -8.1366 25.2343 3.48554 
52.7816 85.6792 10.321 -2.39662 -3.12944 -4.30021 -0.0442812 -1.30099 -0.0273635 -0.0920835 1.40148 -0.0492152 -0.0915348 3.04655 -0.0478062 2.29179 8.79002 1.78761 -2.18019 2.4906 2.31581 60.1873 -4.27642 -2.72638 109.975 16.5169 5.26133 1.52631e-006 -1.14173e-006 -6.61423e-006 12.6374 5.38422 -1.11585 7.56567e-007 4.28988e-006 -3.00582 8.02887 -4.95147 0.697709 -55.0005 -2.12313 0.901303 -113.245 12.8991 -0.700866 6.88396e-006 1.44567e-006 4.84545e-006 -9.92814 6.03951 1.09661 -1.15031e-006 -1.84667e-006 3 -8.02897 -4.95145 -0.697688 174.902 -3.23793 0.753253 180 7.01512e-015 178.78 177.872 4.50286 179.723 2.08359e-006 -2.56809e-006 0.0405783 -18.8992 68.055 19.5752 8.13649 25.2327 -3.48774 -171.488 -2.69341 -1.87102 4.54188e-006 -4.6773e-006 -1.11662 -1.37144 -8.07844 0.463738 -1.60941e-006 -3.52245e-006 -0.122785 19.8276 70.467 -21.7762 -8.1366 25.2343 3.48554 
52.7831 85.6777 10.3331 -2.39958 -3.13331 -4.30219 -0.044008 -1.30011 -0.0271625 -0.0916729 1.40333 -0.0487545 -0.0911241 3.04841 -0.0473304 2.29699 8.78158 1.78832 -2.18829 2.49979 2.31749 60.1874 -4.27962 -2.7283 109.967 16.5176 5.26179 1.52631e-006 -1.14173e-006 -6.61423e-006 12.6381 5.38643 -1.11728 7.56567e-007 4.28988e-006 -3.00582 8.02887 -4.95147 0.697709 -54.9959 -2.12729 0.903572 -113.252 12.9023 -0.714568 6.88396e-006 1.44567e-006 4.84545e-006 -9.91187 6.03646 1.09622 -1.15031e-006 -1.84667e-006 3 -8.02897 -4.95145 -0.697688 174.901 -3.23997 0.75858 180 7.01512e-015 178.78 177.864 4.50533 179.724 2.08359e-006 -2.56809e-006 0.0405783 -18.8981 68.0537 19.574 8.13649 25.2327 -3.48774 -171.484 -2.69523 -1.87398 4.54188e-006 -4.6773e-006 -1.11662 -1.37196 -8.08261 0.463573 -1.60941e-006 -3.52245e-006 -0.122794 19.8265 70.4683 -21.7782 -8.1366 25.2343 3.48554 
52.7846 85.6799 10.33 -2.40248 -3.13722 -4.30411 -0.0437613 -1.29922 -0.0269768 -0.0913022 1.40519 -0.0483368 -0.0907532 3.05027 -0.0468977 2.30224 8.77309 1.78908 -2.1964 2.5092 2.31925 60.1877 -4.28285 -2.73026 109.96 16.5184 5.26306 1.52631e-006 -1.14173e-006 -6.61423e-006 12.6382 5.3884 -1.11866 7.56567e-007 4.28988e-006 -3.00582 8.02887 -4.95147 0.697709 -54.9915 -2.13123 0.905715 -113.258 12.9054 -0.729407 6.88396e-006 1.44567e-006 4.84545e-006 -9.89474 6.03339 1.09579 -1.15031e-006 -1.84667e-006 3 -8.02897 -4.95145 -0.697688 174.9 -3.24211 0.76379 180 7.01512e-015 178.78 177.856 4.50773 179.724 2.08359e-006 -2.56809e-006 0.0405783 -18.8971 68.0525 19.5728 8.13649 25.2327 -3.48774 -171.48 -2.69712 -1.87693 4.54188e-006 -4.6773e-006 -1.11662 -1.37251 -8.08673 0.463399 -1.60941e-006 -3.52245e-006 -0.122804 19.8255 70.4696 -21.7801 -8.1366 25.2343 3.48554 
52.799 85.684 10.332 -2.40532 -3.1412 -4.30596 -0.043551 -1.29831 -0.026812 -0.0909863 1.40707 -0.0479782 -0.0904368 3.05214 -0.046524 2.30757 8.76452 1.78991 -2.20454 2.51888 2.32111 60.1884 -4.28613 -2.73228 109.952 16.5195 5.26542 1.52631e-006 -1.14173e-006 -6.61423e-006 12.6377 5.39002 -1.11996 7.56567e-007 4.28988e-006 -3.00582 8.02887 -4.95147 0.697709 -54.9873 -2.13488 0.907686 -113.265 12.9084 -0.745809 6.88396e-006 1.44567e-006 4.84545e-006 -9.87643 6.0303 1.09534 -1.15031e-006 -1.84667e-006 3 -8.02897 -4.95145 -0.697688 174.9 -3.24437 0.768837 180 7.01512e-015 178.78 177.848 4.51005 179.725 2.08359e-006 -2.56809e-006 0.0405783 -18.896 68.0513 19.5717 8.13649 25.2327 -3.48774 -171.476 -2.69911 -1.87988 4.54188e-006 -4.6773e-006 -1.11662 -1.37311 -8.09078 0.463215 -1.60941e-006 -3.52245e-006 -0.122817 19.8245 70.4708 -21.782 -8.1366 25.2343 3.48554 
